<?xml version="1.0" encoding="utf-8"?>
<!-- Svg Vector Icons : http://www.onlinewebfonts.com/icon -->
<!DOCTYPE svg PUBLIC "-//W3C//DTD SVG 1.1//EN" "http://www.w3.org/Graphics/SVG/1.1/DTD/svg11.dtd">
<svg version="1.1" xmlns="http://www.w3.org/2000/svg" xmlns:xlink="http://www.w3.org/1999/xlink" x="0px" y="0px" viewBox="0 0 256 256" enable-background="new 0 0 256 256" xml:space="preserve">
<metadata> Svg Vector Icons : http://www.onlinewebfonts.com/icon </metadata>
<g><g><g><path fill="#ffd700" d="M50,86.4c-37.8,37.7-40,40.1-40,41.6c0,1.5,2.3,3.9,40,41.6c36.9,37,40.1,40,41.5,40c2.1,0,4.2-2.1,4.2-4.2c0-1.4-2.8-4.3-35.5-37c-19.5-19.5-35.5-35.7-35.5-35.9c0-0.2,49.2-0.3,109.3-0.3h109.3l1.3-1.3c1.7-1.7,1.8-3.6,0.2-5.4l-1.1-1.3l-109.6-0.2l-109.6-0.2l35.6-35.8c32.2-32.4,35.6-36,35.6-37.3c0-2-2.2-4.1-4.2-4.1C90.1,46.4,86.9,49.4,50,86.4z"/></g></g></g>
</svg>