<?xml version="1.0" encoding="utf-8"?>
<!-- Svg Vector Icons : http://www.onlinewebfonts.com/icon -->
<!DOCTYPE svg PUBLIC "-//W3C//DTD SVG 1.1//EN" "http://www.w3.org/Graphics/SVG/1.1/DTD/svg11.dtd">
<svg version="1.1" xmlns="http://www.w3.org/2000/svg" xmlns:xlink="http://www.w3.org/1999/xlink" x="0px" y="0px" viewBox="0 0 256 256" enable-background="new 0 0 256 256" xml:space="preserve">
<metadata> Svg Vector Icons : http://www.onlinewebfonts.com/icon </metadata>
<g><g><g><path fill="#000000" d="M109.6,48.2C100.6,66,92.3,81.6,91.3,83c-1,1.3-3.2,3-4.9,3.8c-1.8,0.8-17.7,3.7-38.8,7c-19.7,3.2-36.2,6-36.7,6.4c-0.5,0.4-1,1.3-1,1.9c0,0.7,12.1,13.3,26.8,28.1c24,24.1,26.9,27.4,27.7,30.3c0.8,3,0.4,6.5-4.8,39.5c-3.1,19.9-5.5,37-5.4,38c0.1,1.2,0.8,1.8,1.8,2c1,0.1,14.3-6.1,34.8-16.6c30.5-15.4,33.5-16.8,36.9-16.8c3.5,0,6.5,1.4,36.9,16.8c20.4,10.3,33.8,16.7,34.8,16.6c1-0.1,1.7-0.8,1.8-2c0.1-1-2.3-18.1-5.5-38.1c-5.2-33.3-5.6-36.7-4.8-39.5c0.8-2.7,4.8-7.1,27.8-30.1c14.8-14.8,26.8-27.5,26.8-28.2c0-0.6-0.4-1.5-0.9-1.9c-0.5-0.4-17-3.3-36.7-6.4c-20.6-3.2-37-6.3-38.8-7c-1.7-0.7-3.9-2.4-4.9-3.8c-1-1.4-9.3-17-18.3-34.8C130.9,17.8,129.8,16,128,16C126.1,16,125,17.8,109.6,48.2z M130.9,30.5c1.3,2.8,8.1,16.2,15,29.7C160.1,88,162.1,90.8,169.2,93c2.1,0.6,17.7,3.3,34.6,6s31.2,5,31.8,5.2c0.7,0.2-7.3,8.8-22.9,24.5c-15.9,16-24.6,25.2-25.7,27.4c-2.6,5.1-2.2,10.2,3.2,44.3c2.7,16.9,4.9,31,4.9,31.2c0,0.3-13.1-6.1-28.9-14.2c-15.9-8.1-31-15.3-33.3-16c-6.9-2.1-9.1-1.3-42.3,15.6c-16.4,8.3-29.7,14.8-29.7,14.5c0-0.2,2.2-14.3,4.9-31.2c2.7-16.9,4.9-32.8,4.9-35.5c0.1-8.6-0.4-9.4-27.3-36.3c-15.3-15.4-23.7-24.3-23-24.5C21,104,35.2,101.7,52,99c16.8-2.7,32.4-5.4,34.6-6c7.2-2.2,9.2-5,23.5-32.8c6.9-13.6,13.7-26.9,15-29.7c1.3-2.7,2.7-4.9,2.9-4.9C128.2,25.6,129.5,27.8,130.9,30.5z"/></g></g></g>
</svg>