<?xml version="1.0" encoding="utf-8"?>
<!-- Svg Vector Icons : http://www.onlinewebfonts.com/icon -->
<!DOCTYPE svg PUBLIC "-//W3C//DTD SVG 1.1//EN" "http://www.w3.org/Graphics/SVG/1.1/DTD/svg11.dtd">
<svg version="1.1" xmlns="http://www.w3.org/2000/svg" xmlns:xlink="http://www.w3.org/1999/xlink" x="0px" y="0px" viewBox="0 0 256 256" enable-background="new 0 0 256 256" xml:space="preserve">
<metadata> Svg Vector Icons : http://www.onlinewebfonts.com/icon </metadata>
<g><g><g><path fill="#008000" d="M125.2,11.3l-1.3,1.3V122c0,60.1-0.1,109.3-0.4,109.3c-0.2,0-16.1-15.8-35.4-35.1c-19.3-19.3-35.4-35.3-35.9-35.5c-1.2-0.6-3.7-0.1-4.7,1c-0.4,0.5-0.9,1.6-1.1,2.6l-0.3,1.7l40.1,40.1c37.8,37.8,40.1,40.1,41.7,40.1s3.9-2.3,41.7-40.1l40.1-40.1l-0.3-1.7c-0.1-1-0.6-2.1-1.1-2.6c-1-1.1-3.5-1.6-4.6-1c-0.5,0.3-16.6,16.3-35.9,35.5c-19.2,19.3-35.2,35.1-35.4,35.1c-0.2,0-0.4-49.2-0.4-109.3V12.7l-1.3-1.3c-0.9-0.9-1.8-1.3-2.8-1.3C127,10,126.1,10.4,125.2,11.3z"/></g></g></g>
</svg>