<?xml version="1.0" encoding="utf-8"?>
<!-- Svg Vector Icons : http://www.onlinewebfonts.com/icon -->
<!DOCTYPE svg PUBLIC "-//W3C//DTD SVG 1.1//EN" "http://www.w3.org/Graphics/SVG/1.1/DTD/svg11.dtd">
<svg version="1.1" xmlns="http://www.w3.org/2000/svg" xmlns:xlink="http://www.w3.org/1999/xlink" x="0px" y="0px" viewBox="0 0 256 256" enable-background="new 0 0 256 256" xml:space="preserve">
<metadata> Svg Vector Icons : http://www.onlinewebfonts.com/icon </metadata>
<g><g><g><path fill="#ff0000" d="M161.6,47.7c-0.9,1-1.3,1.8-1.3,2.9c0,1.4,2.8,4.3,35.5,37c19.5,19.5,35.5,35.7,35.5,35.9s-49.2,0.3-109.3,0.3H12.6l-1.3,1.3c-1.7,1.7-1.8,3.6-0.2,5.4l1.1,1.3l109.7,0.2l109.6,0.2l-35.6,35.8c-32.7,32.8-35.6,35.9-35.6,37.3c0,2.1,2.1,4.2,4.2,4.2c1.4,0,4.6-3,41.5-40c37.8-37.7,40-40.1,40-41.6c0-1.5-2.3-3.9-40-41.6c-36.9-37-40.1-40-41.5-40C163.4,46.4,162.6,46.8,161.6,47.7z"/></g></g></g>
</svg>