<?xml version="1.0" encoding="utf-8"?>
<!-- Svg Vector Icons : http://www.onlinewebfonts.com/icon -->
<!DOCTYPE svg PUBLIC "-//W3C//DTD SVG 1.1//EN" "http://www.w3.org/Graphics/SVG/1.1/DTD/svg11.dtd">
<svg version="1.1" xmlns="http://www.w3.org/2000/svg" xmlns:xlink="http://www.w3.org/1999/xlink" x="0px" y="0px" viewBox="0 0 256 256" enable-background="new 0 0 256 256" xml:space="preserve">
<metadata> Svg Vector Icons : http://www.onlinewebfonts.com/icon </metadata>
<g><g><g><path fill="#0000ff" d="M86.3,50.1L46.3,90.1l0.3,1.8c0.4,2.2,1.5,3.4,3.7,3.7l1.8,0.3l35.5-35.6c19.6-19.5,35.8-35.5,36-35.5c0.2,0,0.3,49.2,0.3,109.3v109.3l1.3,1.3c1.8,1.8,3.8,1.8,5.6,0l1.3-1.3V134c0-60.1,0.2-109.3,0.4-109.3c0.2,0,15.9,15.6,34.9,34.7c19,19.1,35.1,35.1,35.8,35.5c0.9,0.6,1.8,0.7,2.9,0.6c1.9-0.4,3-1.5,3.4-3.7l0.3-1.7l-40.1-40.1C131.9,12.3,129.5,10,128,10S124.1,12.3,86.3,50.1z"/></g></g></g>
</svg>