<svg xmlns="http://www.w3.org/2000/svg" viewBox="0 0 9.91 20.21"><defs><style>.cls-1{fill:#1a1a1a;}.cls-2{fill:#f5f5f5;}.cls-3{fill:#7b996e;}.cls-4{fill:#bad2aa;}.cls-5{fill:#d8d8d8;}</style></defs><g id="Layer_2" data-name="Layer 2"><g id="OBJECTS"><path class="cls-1" d="M9.91,17.32h0a1.85,1.85,0,0,0-.13-.59c-.1-.26-.21-.52-.29-.79L6.4,5.74H3.8l-3.28,10a4.93,4.93,0,0,1-.31.71,1.73,1.73,0,0,0-.21.88H0a2.56,2.56,0,0,0,1.46,2,7.67,7.67,0,0,0,7,.07h0a2.44,2.44,0,0,0,1.44-2.08Z"/><path class="cls-2" d="M9.91,16.62h0A1.85,1.85,0,0,0,9.78,16c-.1-.26-.21-.52-.29-.79L6.4,5H3.8L.52,15a4.93,4.93,0,0,1-.31.71,1.73,1.73,0,0,0-.21.88H0a2.56,2.56,0,0,0,1.46,2,7.67,7.67,0,0,0,7,.07h0a2.44,2.44,0,0,0,1.44-2.08Z"/><polygon class="cls-1" points="3.12 7.1 2.49 9.02 7.61 9.02 6.99 6.98 3.12 7.1"/><path class="cls-3" d="M8.74,3.79A3.79,3.79,0,1,1,5,0,3.78,3.78,0,0,1,8.74,3.79Z"/><circle class="cls-4" cx="3.91" cy="1.75" r="1.32"/><polygon class="cls-5" points="4.33 10.21 2.62 17.34 1.27 16.14 3.19 10.21 4.33 10.21"/></g></g></svg>